<?xml version="1.0" encoding="UTF-8" standalone="no"?>
<!DOCTYPE svg PUBLIC "-//W3C//DTD SVG 1.1//EN"
 "http://www.w3.org/Graphics/SVG/1.1/DTD/svg11.dtd">
<!-- Generated by graphviz version 2.47.3 (20210619.1520)
 -->
<!-- Title: dependencies Pages: 1 -->
<svg width="2131pt" height="247pt"
 viewBox="0.00 0.00 2131.00 246.80" xmlns="http://www.w3.org/2000/svg" xmlns:xlink="http://www.w3.org/1999/xlink">
<g id="graph0" class="graph" transform="scale(1 1) rotate(0) translate(4 242.8)">
<title>dependencies</title>
<polygon fill="white" stroke="transparent" points="-4,4 -4,-242.8 2127,-242.8 2127,4 -4,4"/>
<text text-anchor="middle" x="1061.5" y="-8.2" font-family="sans-serif" font-size="14.00">dependencies</text>
<g id="clust1" class="cluster">
<title>cluster_AppModule</title>
<polygon fill="none" stroke="black" stroke-dasharray="1,5" points="8,-32.8 8,-230.8 2115,-230.8 2115,-32.8 8,-32.8"/>
</g>
<g id="clust14" class="cluster">
<title>cluster_AppModule_imports</title>
<polygon fill="none" stroke="black" points="1963,-40.8 1963,-92.8 2107,-92.8 2107,-40.8 1963,-40.8"/>
</g>
<g id="clust16" class="cluster">
<title>cluster_AppModule_bootstrap</title>
<polygon fill="none" stroke="black" points="1057,-170.8 1057,-222.8 1181,-222.8 1181,-170.8 1057,-170.8"/>
</g>
<g id="clust2" class="cluster">
<title>cluster_AppModule_declarations</title>
<polygon fill="none" stroke="black" points="16,-40.8 16,-92.8 1955,-92.8 1955,-40.8 16,-40.8"/>
</g>
<!-- AppComponent -->
<g id="node1" class="node">
<title>AppComponent</title>
<polygon fill="#ffffb3" stroke="black" points="1946.94,-84.8 1841.06,-84.8 1841.06,-48.8 1946.94,-48.8 1946.94,-84.8"/>
<text text-anchor="middle" x="1894" y="-62.6" font-family="Times,serif" font-size="14.00">AppComponent</text>
</g>
<!-- AppModule -->
<g id="node12" class="node">
<title>AppModule</title>
<polygon fill="#8dd3c7" stroke="black" points="1160.66,-149.8 1157.66,-153.8 1136.66,-153.8 1133.66,-149.8 1077.34,-149.8 1077.34,-113.8 1160.66,-113.8 1160.66,-149.8"/>
<text text-anchor="middle" x="1119" y="-127.6" font-family="Times,serif" font-size="14.00">AppModule</text>
</g>
<!-- AppComponent&#45;&gt;AppModule -->
<g id="edge1" class="edge">
<title>AppComponent&#45;&gt;AppModule</title>
<path fill="none" stroke="black" d="M1894,-85.08C1894,-106.12 1894,-137.8 1894,-137.8 1894,-137.8 1170.67,-137.8 1170.67,-137.8"/>
<polygon fill="black" stroke="black" points="1170.67,-134.3 1160.67,-137.8 1170.67,-141.3 1170.67,-134.3"/>
</g>
<!-- DirectorViewComponent -->
<g id="node2" class="node">
<title>DirectorViewComponent</title>
<polygon fill="#ffffb3" stroke="black" points="1823.29,-84.8 1664.71,-84.8 1664.71,-48.8 1823.29,-48.8 1823.29,-84.8"/>
<text text-anchor="middle" x="1744" y="-62.6" font-family="Times,serif" font-size="14.00">DirectorViewComponent</text>
</g>
<!-- DirectorViewComponent&#45;&gt;AppModule -->
<g id="edge2" class="edge">
<title>DirectorViewComponent&#45;&gt;AppModule</title>
<path fill="none" stroke="black" d="M1744,-84.91C1744,-104.14 1744,-131.8 1744,-131.8 1744,-131.8 1170.98,-131.8 1170.98,-131.8"/>
<polygon fill="black" stroke="black" points="1170.98,-128.3 1160.98,-131.8 1170.98,-135.3 1170.98,-128.3"/>
</g>
<!-- EditProfileViewComponent -->
<g id="node3" class="node">
<title>EditProfileViewComponent</title>
<polygon fill="#ffffb3" stroke="black" points="1646.58,-84.8 1473.42,-84.8 1473.42,-48.8 1646.58,-48.8 1646.58,-84.8"/>
<text text-anchor="middle" x="1560" y="-62.6" font-family="Times,serif" font-size="14.00">EditProfileViewComponent</text>
</g>
<!-- EditProfileViewComponent&#45;&gt;AppModule -->
<g id="edge3" class="edge">
<title>EditProfileViewComponent&#45;&gt;AppModule</title>
<path fill="none" stroke="black" d="M1560,-84.82C1560,-102.17 1560,-125.8 1560,-125.8 1560,-125.8 1170.89,-125.8 1170.89,-125.8"/>
<polygon fill="black" stroke="black" points="1170.89,-122.3 1160.89,-125.8 1170.89,-129.3 1170.89,-122.3"/>
</g>
<!-- FavoritesViewComponent -->
<g id="node4" class="node">
<title>FavoritesViewComponent</title>
<polygon fill="#ffffb3" stroke="black" points="1455.75,-84.8 1292.25,-84.8 1292.25,-48.8 1455.75,-48.8 1455.75,-84.8"/>
<text text-anchor="middle" x="1374" y="-62.6" font-family="Times,serif" font-size="14.00">FavoritesViewComponent</text>
</g>
<!-- FavoritesViewComponent&#45;&gt;AppModule -->
<g id="edge4" class="edge">
<title>FavoritesViewComponent&#45;&gt;AppModule</title>
<path fill="none" stroke="black" d="M1374,-85.04C1374,-100.37 1374,-119.8 1374,-119.8 1374,-119.8 1170.82,-119.8 1170.82,-119.8"/>
<polygon fill="black" stroke="black" points="1170.82,-116.3 1160.82,-119.8 1170.82,-123.3 1170.82,-116.3"/>
</g>
<!-- GenreViewComponent -->
<g id="node5" class="node">
<title>GenreViewComponent</title>
<polygon fill="#ffffb3" stroke="black" points="1273.85,-84.8 1128.15,-84.8 1128.15,-48.8 1273.85,-48.8 1273.85,-84.8"/>
<text text-anchor="middle" x="1201" y="-62.6" font-family="Times,serif" font-size="14.00">GenreViewComponent</text>
</g>
<!-- GenreViewComponent&#45;&gt;AppModule -->
<g id="edge5" class="edge">
<title>GenreViewComponent&#45;&gt;AppModule</title>
<path fill="none" stroke="black" d="M1144.45,-84.91C1144.45,-84.91 1144.45,-103.79 1144.45,-103.79"/>
<polygon fill="black" stroke="black" points="1140.95,-103.79 1144.45,-113.79 1147.95,-103.79 1140.95,-103.79"/>
</g>
<!-- MovieCardComponent -->
<g id="node6" class="node">
<title>MovieCardComponent</title>
<polygon fill="#ffffb3" stroke="black" points="1110.59,-84.8 965.41,-84.8 965.41,-48.8 1110.59,-48.8 1110.59,-84.8"/>
<text text-anchor="middle" x="1038" y="-62.6" font-family="Times,serif" font-size="14.00">MovieCardComponent</text>
</g>
<!-- MovieCardComponent&#45;&gt;AppModule -->
<g id="edge6" class="edge">
<title>MovieCardComponent&#45;&gt;AppModule</title>
<path fill="none" stroke="black" d="M1093.86,-84.91C1093.86,-84.91 1093.86,-103.79 1093.86,-103.79"/>
<polygon fill="black" stroke="black" points="1090.36,-103.79 1093.86,-113.79 1097.36,-103.79 1090.36,-103.79"/>
</g>
<!-- ProfileViewComponent -->
<g id="node7" class="node">
<title>ProfileViewComponent</title>
<polygon fill="#ffffb3" stroke="black" points="947.75,-84.8 798.25,-84.8 798.25,-48.8 947.75,-48.8 947.75,-84.8"/>
<text text-anchor="middle" x="873" y="-62.6" font-family="Times,serif" font-size="14.00">ProfileViewComponent</text>
</g>
<!-- ProfileViewComponent&#45;&gt;AppModule -->
<g id="edge7" class="edge">
<title>ProfileViewComponent&#45;&gt;AppModule</title>
<path fill="none" stroke="black" d="M873,-85.04C873,-100.37 873,-119.8 873,-119.8 873,-119.8 1067.27,-119.8 1067.27,-119.8"/>
<polygon fill="black" stroke="black" points="1067.27,-123.3 1077.27,-119.8 1067.27,-116.3 1067.27,-123.3"/>
</g>
<!-- SynopsisViewComponent -->
<g id="node8" class="node">
<title>SynopsisViewComponent</title>
<polygon fill="#ffffb3" stroke="black" points="780.21,-84.8 617.79,-84.8 617.79,-48.8 780.21,-48.8 780.21,-84.8"/>
<text text-anchor="middle" x="699" y="-62.6" font-family="Times,serif" font-size="14.00">SynopsisViewComponent</text>
</g>
<!-- SynopsisViewComponent&#45;&gt;AppModule -->
<g id="edge8" class="edge">
<title>SynopsisViewComponent&#45;&gt;AppModule</title>
<path fill="none" stroke="black" d="M699,-84.82C699,-102.17 699,-125.8 699,-125.8 699,-125.8 1067.19,-125.8 1067.19,-125.8"/>
<polygon fill="black" stroke="black" points="1067.19,-129.3 1077.19,-125.8 1067.19,-122.3 1067.19,-129.3"/>
</g>
<!-- UserLoginFormComponent -->
<g id="node9" class="node">
<title>UserLoginFormComponent</title>
<polygon fill="#ffffb3" stroke="black" points="599.54,-84.8 428.46,-84.8 428.46,-48.8 599.54,-48.8 599.54,-84.8"/>
<text text-anchor="middle" x="514" y="-62.6" font-family="Times,serif" font-size="14.00">UserLoginFormComponent</text>
</g>
<!-- UserLoginFormComponent&#45;&gt;AppModule -->
<g id="edge9" class="edge">
<title>UserLoginFormComponent&#45;&gt;AppModule</title>
<path fill="none" stroke="black" d="M514,-84.91C514,-104.14 514,-131.8 514,-131.8 514,-131.8 1066.94,-131.8 1066.94,-131.8"/>
<polygon fill="black" stroke="black" points="1066.94,-135.3 1076.94,-131.8 1066.94,-128.3 1066.94,-135.3"/>
</g>
<!-- UserRegistrationFormComponent -->
<g id="node10" class="node">
<title>UserRegistrationFormComponent</title>
<polygon fill="#ffffb3" stroke="black" points="410.03,-84.8 203.97,-84.8 203.97,-48.8 410.03,-48.8 410.03,-84.8"/>
<text text-anchor="middle" x="307" y="-62.6" font-family="Times,serif" font-size="14.00">UserRegistrationFormComponent</text>
</g>
<!-- UserRegistrationFormComponent&#45;&gt;AppModule -->
<g id="edge10" class="edge">
<title>UserRegistrationFormComponent&#45;&gt;AppModule</title>
<path fill="none" stroke="black" d="M307,-85.08C307,-106.12 307,-137.8 307,-137.8 307,-137.8 1067.34,-137.8 1067.34,-137.8"/>
<polygon fill="black" stroke="black" points="1067.34,-141.3 1077.34,-137.8 1067.34,-134.3 1067.34,-141.3"/>
</g>
<!-- WelcomePageComponent -->
<g id="node11" class="node">
<title>WelcomePageComponent</title>
<polygon fill="#ffffb3" stroke="black" points="186.18,-84.8 23.82,-84.8 23.82,-48.8 186.18,-48.8 186.18,-84.8"/>
<text text-anchor="middle" x="105" y="-62.6" font-family="Times,serif" font-size="14.00">WelcomePageComponent</text>
</g>
<!-- WelcomePageComponent&#45;&gt;AppModule -->
<g id="edge11" class="edge">
<title>WelcomePageComponent&#45;&gt;AppModule</title>
<path fill="none" stroke="black" d="M105,-85.05C105,-107.82 105,-143.8 105,-143.8 105,-143.8 1067.04,-143.8 1067.04,-143.8"/>
<polygon fill="black" stroke="black" points="1067.04,-147.3 1077.04,-143.8 1067.04,-140.3 1067.04,-147.3"/>
</g>
<!-- AppComponent  -->
<g id="node14" class="node">
<title>AppComponent </title>
<polygon fill="#80b1d3" stroke="black" points="1173.44,-214.8 1064.56,-214.8 1064.56,-178.8 1173.44,-178.8 1173.44,-214.8"/>
<text text-anchor="middle" x="1119" y="-192.6" font-family="Times,serif" font-size="14.00">AppComponent </text>
</g>
<!-- AppModule&#45;&gt;AppComponent  -->
<g id="edge13" class="edge">
<title>AppModule&#45;&gt;AppComponent </title>
<path fill="none" stroke="black" stroke-dasharray="1,5" d="M1119,-149.91C1119,-149.91 1119,-168.79 1119,-168.79"/>
<polygon fill="black" stroke="black" points="1115.5,-168.79 1119,-178.79 1122.5,-168.79 1115.5,-168.79"/>
</g>
<!-- AppRoutingModule -->
<g id="node13" class="node">
<title>AppRoutingModule</title>
<polygon fill="#8dd3c7" stroke="black" points="2099.27,-84.8 2096.27,-88.8 2075.27,-88.8 2072.27,-84.8 1970.73,-84.8 1970.73,-48.8 2099.27,-48.8 2099.27,-84.8"/>
<text text-anchor="middle" x="2035" y="-62.6" font-family="Times,serif" font-size="14.00">AppRoutingModule</text>
</g>
<!-- AppRoutingModule&#45;&gt;AppModule -->
<g id="edge12" class="edge">
<title>AppRoutingModule&#45;&gt;AppModule</title>
<path fill="none" stroke="black" d="M2035,-85.05C2035,-107.82 2035,-143.8 2035,-143.8 2035,-143.8 1170.74,-143.8 1170.74,-143.8"/>
<polygon fill="black" stroke="black" points="1170.74,-140.3 1160.74,-143.8 1170.74,-147.3 1170.74,-140.3"/>
</g>
</g>
</svg>
