<?xml version="1.0" encoding="UTF-8" standalone="no"?>
<!DOCTYPE svg PUBLIC "-//W3C//DTD SVG 1.1//EN"
 "http://www.w3.org/Graphics/SVG/1.1/DTD/svg11.dtd">
<!-- Generated by graphviz version 2.47.3 (20210619.1520)
 -->
<!-- Title: dependencies Pages: 1 -->
<svg width="2131pt" height="247pt"
 viewBox="0.00 0.00 2131.00 246.80" xmlns="http://www.w3.org/2000/svg" xmlns:xlink="http://www.w3.org/1999/xlink">
<g id="graph0" class="graph" transform="scale(1 1) rotate(0) translate(4 242.8)">
<title>dependencies</title>
<polygon fill="white" stroke="transparent" points="-4,4 -4,-242.8 2127,-242.8 2127,4 -4,4"/>
<text text-anchor="middle" x="1061.5" y="-8.2" font-family="sans-serif" font-size="14.00">dependencies</text>
<g id="clust1" class="cluster">
<title>cluster_AppModule</title>
<polygon fill="none" stroke="black" stroke-dasharray="1,5" points="8,-32.8 8,-230.8 2115,-230.8 2115,-32.8 8,-32.8"/>
</g>
<g id="clust2" class="cluster">
<title>cluster_AppModule_declarations</title>
<polygon fill="none" stroke="black" points="168,-40.8 168,-92.8 2107,-92.8 2107,-40.8 168,-40.8"/>
</g>
<g id="clust14" class="cluster">
<title>cluster_AppModule_imports</title>
<polygon fill="none" stroke="black" points="16,-40.8 16,-92.8 160,-92.8 160,-40.8 16,-40.8"/>
</g>
<g id="clust16" class="cluster">
<title>cluster_AppModule_bootstrap</title>
<polygon fill="none" stroke="black" points="1045,-170.8 1045,-222.8 1169,-222.8 1169,-170.8 1045,-170.8"/>
</g>
<!-- AppComponent -->
<g id="node1" class="node">
<title>AppComponent</title>
<polygon fill="#ffffb3" stroke="black" points="2098.94,-84.8 1993.06,-84.8 1993.06,-48.8 2098.94,-48.8 2098.94,-84.8"/>
<text text-anchor="middle" x="2046" y="-62.6" font-family="Times,serif" font-size="14.00">AppComponent</text>
</g>
<!-- AppModule -->
<g id="node12" class="node">
<title>AppModule</title>
<polygon fill="#8dd3c7" stroke="black" points="1148.66,-149.8 1145.66,-153.8 1124.66,-153.8 1121.66,-149.8 1065.34,-149.8 1065.34,-113.8 1148.66,-113.8 1148.66,-149.8"/>
<text text-anchor="middle" x="1107" y="-127.6" font-family="Times,serif" font-size="14.00">AppModule</text>
</g>
<!-- AppComponent&#45;&gt;AppModule -->
<g id="edge1" class="edge">
<title>AppComponent&#45;&gt;AppModule</title>
<path fill="none" stroke="black" d="M2046,-85.05C2046,-107.82 2046,-143.8 2046,-143.8 2046,-143.8 1158.86,-143.8 1158.86,-143.8"/>
<polygon fill="black" stroke="black" points="1158.86,-140.3 1148.86,-143.8 1158.86,-147.3 1158.86,-140.3"/>
</g>
<!-- DirectorViewComponent -->
<g id="node2" class="node">
<title>DirectorViewComponent</title>
<polygon fill="#ffffb3" stroke="black" points="1975.29,-84.8 1816.71,-84.8 1816.71,-48.8 1975.29,-48.8 1975.29,-84.8"/>
<text text-anchor="middle" x="1896" y="-62.6" font-family="Times,serif" font-size="14.00">DirectorViewComponent</text>
</g>
<!-- DirectorViewComponent&#45;&gt;AppModule -->
<g id="edge2" class="edge">
<title>DirectorViewComponent&#45;&gt;AppModule</title>
<path fill="none" stroke="black" d="M1896,-85.08C1896,-106.12 1896,-137.8 1896,-137.8 1896,-137.8 1158.86,-137.8 1158.86,-137.8"/>
<polygon fill="black" stroke="black" points="1158.86,-134.3 1148.86,-137.8 1158.86,-141.3 1158.86,-134.3"/>
</g>
<!-- EditProfileViewComponent -->
<g id="node3" class="node">
<title>EditProfileViewComponent</title>
<polygon fill="#ffffb3" stroke="black" points="1798.58,-84.8 1625.42,-84.8 1625.42,-48.8 1798.58,-48.8 1798.58,-84.8"/>
<text text-anchor="middle" x="1712" y="-62.6" font-family="Times,serif" font-size="14.00">EditProfileViewComponent</text>
</g>
<!-- EditProfileViewComponent&#45;&gt;AppModule -->
<g id="edge3" class="edge">
<title>EditProfileViewComponent&#45;&gt;AppModule</title>
<path fill="none" stroke="black" d="M1712,-84.91C1712,-104.14 1712,-131.8 1712,-131.8 1712,-131.8 1159.06,-131.8 1159.06,-131.8"/>
<polygon fill="black" stroke="black" points="1159.06,-128.3 1149.06,-131.8 1159.06,-135.3 1159.06,-128.3"/>
</g>
<!-- FavoritesViewComponent -->
<g id="node4" class="node">
<title>FavoritesViewComponent</title>
<polygon fill="#ffffb3" stroke="black" points="1607.75,-84.8 1444.25,-84.8 1444.25,-48.8 1607.75,-48.8 1607.75,-84.8"/>
<text text-anchor="middle" x="1526" y="-62.6" font-family="Times,serif" font-size="14.00">FavoritesViewComponent</text>
</g>
<!-- FavoritesViewComponent&#45;&gt;AppModule -->
<g id="edge4" class="edge">
<title>FavoritesViewComponent&#45;&gt;AppModule</title>
<path fill="none" stroke="black" d="M1526,-84.82C1526,-102.17 1526,-125.8 1526,-125.8 1526,-125.8 1158.71,-125.8 1158.71,-125.8"/>
<polygon fill="black" stroke="black" points="1158.71,-122.3 1148.71,-125.8 1158.71,-129.3 1158.71,-122.3"/>
</g>
<!-- GenreViewComponent -->
<g id="node5" class="node">
<title>GenreViewComponent</title>
<polygon fill="#ffffb3" stroke="black" points="1425.85,-84.8 1280.15,-84.8 1280.15,-48.8 1425.85,-48.8 1425.85,-84.8"/>
<text text-anchor="middle" x="1353" y="-62.6" font-family="Times,serif" font-size="14.00">GenreViewComponent</text>
</g>
<!-- GenreViewComponent&#45;&gt;AppModule -->
<g id="edge5" class="edge">
<title>GenreViewComponent&#45;&gt;AppModule</title>
<path fill="none" stroke="black" d="M1353,-85.04C1353,-100.37 1353,-119.8 1353,-119.8 1353,-119.8 1158.73,-119.8 1158.73,-119.8"/>
<polygon fill="black" stroke="black" points="1158.73,-116.3 1148.73,-119.8 1158.73,-123.3 1158.73,-116.3"/>
</g>
<!-- MovieCardComponent -->
<g id="node6" class="node">
<title>MovieCardComponent</title>
<polygon fill="#ffffb3" stroke="black" points="1262.59,-84.8 1117.41,-84.8 1117.41,-48.8 1262.59,-48.8 1262.59,-84.8"/>
<text text-anchor="middle" x="1190" y="-62.6" font-family="Times,serif" font-size="14.00">MovieCardComponent</text>
</g>
<!-- MovieCardComponent&#45;&gt;AppModule -->
<g id="edge6" class="edge">
<title>MovieCardComponent&#45;&gt;AppModule</title>
<path fill="none" stroke="black" d="M1133.14,-84.91C1133.14,-84.91 1133.14,-103.79 1133.14,-103.79"/>
<polygon fill="black" stroke="black" points="1129.64,-103.79 1133.14,-113.79 1136.64,-103.79 1129.64,-103.79"/>
</g>
<!-- ProfileViewComponent -->
<g id="node7" class="node">
<title>ProfileViewComponent</title>
<polygon fill="#ffffb3" stroke="black" points="1099.75,-84.8 950.25,-84.8 950.25,-48.8 1099.75,-48.8 1099.75,-84.8"/>
<text text-anchor="middle" x="1025" y="-62.6" font-family="Times,serif" font-size="14.00">ProfileViewComponent</text>
</g>
<!-- ProfileViewComponent&#45;&gt;AppModule -->
<g id="edge7" class="edge">
<title>ProfileViewComponent&#45;&gt;AppModule</title>
<path fill="none" stroke="black" d="M1082.52,-84.91C1082.52,-84.91 1082.52,-103.79 1082.52,-103.79"/>
<polygon fill="black" stroke="black" points="1079.02,-103.79 1082.52,-113.79 1086.02,-103.79 1079.02,-103.79"/>
</g>
<!-- SynopsisViewComponent -->
<g id="node8" class="node">
<title>SynopsisViewComponent</title>
<polygon fill="#ffffb3" stroke="black" points="932.21,-84.8 769.79,-84.8 769.79,-48.8 932.21,-48.8 932.21,-84.8"/>
<text text-anchor="middle" x="851" y="-62.6" font-family="Times,serif" font-size="14.00">SynopsisViewComponent</text>
</g>
<!-- SynopsisViewComponent&#45;&gt;AppModule -->
<g id="edge8" class="edge">
<title>SynopsisViewComponent&#45;&gt;AppModule</title>
<path fill="none" stroke="black" d="M851,-85.04C851,-100.37 851,-119.8 851,-119.8 851,-119.8 1055.3,-119.8 1055.3,-119.8"/>
<polygon fill="black" stroke="black" points="1055.3,-123.3 1065.3,-119.8 1055.3,-116.3 1055.3,-123.3"/>
</g>
<!-- UserLoginFormComponent -->
<g id="node9" class="node">
<title>UserLoginFormComponent</title>
<polygon fill="#ffffb3" stroke="black" points="751.54,-84.8 580.46,-84.8 580.46,-48.8 751.54,-48.8 751.54,-84.8"/>
<text text-anchor="middle" x="666" y="-62.6" font-family="Times,serif" font-size="14.00">UserLoginFormComponent</text>
</g>
<!-- UserLoginFormComponent&#45;&gt;AppModule -->
<g id="edge9" class="edge">
<title>UserLoginFormComponent&#45;&gt;AppModule</title>
<path fill="none" stroke="black" d="M666,-84.82C666,-102.17 666,-125.8 666,-125.8 666,-125.8 1055.11,-125.8 1055.11,-125.8"/>
<polygon fill="black" stroke="black" points="1055.11,-129.3 1065.11,-125.8 1055.11,-122.3 1055.11,-129.3"/>
</g>
<!-- UserRegistrationFormComponent -->
<g id="node10" class="node">
<title>UserRegistrationFormComponent</title>
<polygon fill="#ffffb3" stroke="black" points="562.03,-84.8 355.97,-84.8 355.97,-48.8 562.03,-48.8 562.03,-84.8"/>
<text text-anchor="middle" x="459" y="-62.6" font-family="Times,serif" font-size="14.00">UserRegistrationFormComponent</text>
</g>
<!-- UserRegistrationFormComponent&#45;&gt;AppModule -->
<g id="edge10" class="edge">
<title>UserRegistrationFormComponent&#45;&gt;AppModule</title>
<path fill="none" stroke="black" d="M459,-84.91C459,-104.14 459,-131.8 459,-131.8 459,-131.8 1054.98,-131.8 1054.98,-131.8"/>
<polygon fill="black" stroke="black" points="1054.98,-135.3 1064.98,-131.8 1054.98,-128.3 1054.98,-135.3"/>
</g>
<!-- WelcomePageComponent -->
<g id="node11" class="node">
<title>WelcomePageComponent</title>
<polygon fill="#ffffb3" stroke="black" points="338.18,-84.8 175.82,-84.8 175.82,-48.8 338.18,-48.8 338.18,-84.8"/>
<text text-anchor="middle" x="257" y="-62.6" font-family="Times,serif" font-size="14.00">WelcomePageComponent</text>
</g>
<!-- WelcomePageComponent&#45;&gt;AppModule -->
<g id="edge11" class="edge">
<title>WelcomePageComponent&#45;&gt;AppModule</title>
<path fill="none" stroke="black" d="M257,-85.08C257,-106.12 257,-137.8 257,-137.8 257,-137.8 1055.14,-137.8 1055.14,-137.8"/>
<polygon fill="black" stroke="black" points="1055.14,-141.3 1065.14,-137.8 1055.14,-134.3 1055.14,-141.3"/>
</g>
<!-- AppComponent  -->
<g id="node14" class="node">
<title>AppComponent </title>
<polygon fill="#80b1d3" stroke="black" points="1161.44,-214.8 1052.56,-214.8 1052.56,-178.8 1161.44,-178.8 1161.44,-214.8"/>
<text text-anchor="middle" x="1107" y="-192.6" font-family="Times,serif" font-size="14.00">AppComponent </text>
</g>
<!-- AppModule&#45;&gt;AppComponent  -->
<g id="edge13" class="edge">
<title>AppModule&#45;&gt;AppComponent </title>
<path fill="none" stroke="black" stroke-dasharray="1,5" d="M1107,-149.91C1107,-149.91 1107,-168.79 1107,-168.79"/>
<polygon fill="black" stroke="black" points="1103.5,-168.79 1107,-178.79 1110.5,-168.79 1103.5,-168.79"/>
</g>
<!-- AppRoutingModule -->
<g id="node13" class="node">
<title>AppRoutingModule</title>
<polygon fill="#8dd3c7" stroke="black" points="152.27,-84.8 149.27,-88.8 128.27,-88.8 125.27,-84.8 23.73,-84.8 23.73,-48.8 152.27,-48.8 152.27,-84.8"/>
<text text-anchor="middle" x="88" y="-62.6" font-family="Times,serif" font-size="14.00">AppRoutingModule</text>
</g>
<!-- AppRoutingModule&#45;&gt;AppModule -->
<g id="edge12" class="edge">
<title>AppRoutingModule&#45;&gt;AppModule</title>
<path fill="none" stroke="black" d="M88,-85.05C88,-107.82 88,-143.8 88,-143.8 88,-143.8 1055.15,-143.8 1055.15,-143.8"/>
<polygon fill="black" stroke="black" points="1055.15,-147.3 1065.15,-143.8 1055.15,-140.3 1055.15,-147.3"/>
</g>
</g>
</svg>
